Coordinates
version=1
nRows=11
nColumns=63
inDegrees=yes

Units are S.I. units (second, meters, Newtons, ...)
If the header above contains a line with 'inDegrees', this indicates whether rotational values are in degrees (yes) or radians (no).

endheader
time	pelvis_tilt	pelvis_list	pelvis_rotation	pelvis_tx	pelvis_ty	pelvis_tz	hip_flexion_r	hip_adduction_r	hip_rotation_r	knee_angle_r	knee_angle_r_beta	ankle_angle_r	subtalar_angle_r	mtp_angle_r	hip_flexion_l	hip_adduction_l	hip_rotation_l	knee_angle_l	knee_angle_l_beta	ankle_angle_l	subtalar_angle_l	mtp_angle_l	L5_S1_Flex_Ext	L5_S1_Lat_Bending	L5_S1_axial_rotation	L4_L5_Flex_Ext	L4_L5_Lat_Bending	L4_L5_axial_rotation	L3_L4_Flex_Ext	L3_L4_Lat_Bending	L3_L4_axial_rotation	L2_L3_Flex_Ext	L2_L3_Lat_Bending	L2_L3_axial_rotation	L1_L2_Flex_Ext	L1_L2_Lat_Bending	L1_L2_axial_rotation	L1_T12_Flex_Ext	L1_T12_Lat_Bending	L1_T12_axial_rotation	Abs_r3	Abs_r2	Abs_r1	Abs_t1	Abs_t2	neck_flexion	neck_bending	neck_rotation	arm_flex_r	arm_add_r	arm_rot_r	elbow_flex_r	pro_sup_r	wrist_flex_r	wrist_dev_r	arm_flex_l	arm_add_l	arm_rot_l	elbow_flex_l	pro_sup_l	wrist_flex_l	wrist_dev_l
      3.83333333	     -2.03724100	      1.00065030	     95.48635682	      0.20389769	      0.85906253	      0.54178648	     -9.41140978	     -0.39777787	     -2.76984022	      4.48341689	      0.07825039	     20.08840697	     -5.02915632	      0.00000000	     -8.83895622	      0.77444940	     18.57495133	      1.15259606	      0.02011660	     15.75703195	    -16.22144889	      0.00000000	      0.64504528	      0.00289694	     -0.60936876	      1.19791358	      0.00385293	     -0.64745431	      1.05974488	      0.00704362	     -0.64745431	      0.73722225	      0.00704362	     -0.53319767	      0.59898904	      0.00590744	     -0.49511212	      0.36857887	      0.00448736	     -0.45702657	      4.60749390	      0.03277076	     -3.38912625	      0.00000000	      0.00000000	     28.31349235	     -4.15930456	      2.30325826	     22.81476380	     -5.78619617	     84.98438224	     39.30139403	     79.30104671	     -2.49068431	      1.14897525	     21.13383803	     -3.51501640	     81.86494387	     31.14626437	     21.62597055	      6.37557189	     -1.43749841
      3.85416667	     -1.86993301	      1.07506873	     95.35463789	      0.20347796	      0.85952748	      0.54129117	     -9.37053105	     -0.39512272	     -4.94300790	      4.74796831	      0.08286768	     20.47017736	     -1.69184015	      0.00000000	     -8.84424754	      0.66426612	     18.25573289	      1.26076836	      0.02200456	     16.13732682	    -15.84977841	      0.00000000	      0.62599783	      0.04448750	     -0.64581576	      1.16254058	      0.05916838	     -0.68617924	      1.02845184	      0.10816691	     -0.68617924	      0.71545292	      0.10816691	     -0.56508879	      0.58130159	      0.09071891	     -0.52472530	      0.35769516	      0.06891114	     -0.48436182	      4.47143992	      0.50325151	     -3.59183349	      0.00000000	      0.00000000	     28.29956875	     -3.71409245	      3.46632980	     23.15574275	     -5.52832641	     87.49962443	     38.69216676	     71.60956856	     -1.95544874	      0.76071133	     19.16395970	     -3.61125806	     75.77371960	     30.86653501	     29.50571336	      8.35819140	     -1.01681502
      3.87500000	     -1.70830870	      1.09433274	     95.16740645	      0.20319595	      0.85983250	      0.54078197	     -9.27302291	     -0.32020519	     -5.07108085	      4.97742196	      0.08687240	     20.22956598	     -1.34608625	      0.00000000	     -8.81282288	      0.57198102	     18.03577896	      1.34743675	      0.02351721	     16.42015296	    -15.75207003	      0.00000000	      0.61440429	      0.08005338	     -0.59075243	      1.14101021	      0.10647100	     -0.62767446	      1.00940481	      0.19464180	     -0.62767446	      0.70220266	      0.19464180	     -0.51690838	      0.57053583	      0.16324486	     -0.47998635	      0.35107061	      0.12400269	     -0.44306432	      4.38862841	      0.90557990	     -3.28558780	      0.00000000	      0.00000000	     28.28657989	     -3.38041825	      4.35853725	     22.45678213	     -5.62425733	     85.97880279	     38.46627016	     68.71043191	     -0.30494363	      0.70039423	     18.51397434	     -3.56082913	     75.87904187	     30.63402627	     31.09237508	      8.40296131	     -3.48078879
      3.89583333	     -1.58044378	      1.11813779	     95.28057094	      0.20245251	      0.86001735	      0.54063130	     -9.19033702	     -0.26464653	     -5.96368862	      5.24057593	      0.09146530	     20.26161334	     -0.30982365	      0.00000000	     -8.73265284	      0.47641113	     18.01906557	      1.48827730	      0.02597534	     16.74237069	    -15.46703120	      0.00000000	      0.59188473	      0.11008368	     -0.62194922	      1.09918913	      0.14641129	     -0.66082104	      0.97240742	      0.26765746	     -0.66082104	      0.67646505	      0.26765746	     -0.54420557	      0.54962416	      0.22448264	     -0.50533374	      0.33820293	      0.17051962	     -0.46646191	      4.22777342	      1.24528859	     -3.45909497	      0.00000000	      0.00000000	     28.27138416	     -2.95244238	      5.38664380	     22.62493636	     -5.60588353	     87.39657329	     38.47724491	     60.89513792	      0.35578126	      0.05364156	     18.37003402	     -3.40573316	     77.49111658	     29.49468612	     32.00138168	     10.62527730	     -6.86025052
      3.91666667	     -1.48968291	      1.07706968	     95.54664593	      0.20177610	      0.86012886	      0.54052530	     -9.05817718	     -0.17516876	     -6.36696181	      5.46285759	      0.09534485	     20.24988852	     -0.16448054	      0.00000000	     -8.57799089	      0.38807510	     18.24099685	      1.63037527	      0.02845542	     16.80550950	    -15.42069719	      0.00000000	      0.57063738	      0.12984890	     -0.67452089	      1.05973068	      0.17269903	     -0.71667844	      0.93750015	      0.31571461	     -0.71667844	      0.65218146	      0.31571461	     -0.59020578	      0.52989387	      0.26478787	     -0.54804822	      0.32606220	      0.20113594	     -0.50589067	      4.07600574	      1.46887670	     -3.75148282	      0.00000000	      0.00000000	     28.25165077	     -2.20459743	      6.63773758	     22.26602044	     -5.50877332	     86.45691333	     38.40448104	     57.69734200	      1.79333730	      0.11909144	     18.40854068	     -3.43185311	     79.30896136	     28.97165976	     32.25260209	     11.52481131	     -8.62537570
      3.93750000	     -1.41960539	      1.17564070	     95.79860235	      0.20133998	      0.86034044	      0.54047664	     -9.06346312	     -0.10099984	     -6.99801447	      5.69115760	      0.09932944	     20.57781439	      0.50626429	      0.00000000	     -8.57404253	      0.28468088	     18.56938662	      1.79310861	      0.03129565	     16.87373378	    -15.37380810	      0.00000000	      0.52593355	      0.14205830	     -0.70932424	      0.97671120	      0.18893753	     -0.75365700	      0.86405624	      0.34540054	     -0.75365700	      0.60108946	      0.34540054	     -0.62065871	      0.48838190	      0.28968528	     -0.57632594	      0.30051843	      0.22004830	     -0.53199318	      3.75669078	      1.60699185	     -3.94504862	      0.00000000	      0.00000000	     28.22841997	     -1.84043209	      7.23700709	     22.65636247	     -5.39445598	     88.12958180	     38.51614214	     52.11487830	      1.85759615	     -0.44650808	     19.93568036	     -3.26526631	     87.74837228	     28.10500582	     25.85886075	     12.97623508	    -11.96699672
      3.95833333	     -1.37301147	      1.17106826	     96.14723080	      0.20099295	      0.86040999	      0.54002603	     -8.97734193	      0.00084293	     -7.14908178	      5.90621389	      0.10308288	     20.88161949	      0.38624344	      0.00000000	     -8.47967896	      0.18505154	     19.07521123	      1.95344773	      0.03409409	     16.91365850	    -15.47956295	      0.00000000	      0.49746617	      0.14443280	     -0.78542567	      0.92384443	      0.19209562	     -0.83451477	      0.81728717	      0.35117390	     -0.83451477	      0.56855409	      0.35117390	     -0.68724746	      0.46194709	      0.29452736	     -0.63815836	      0.28425217	      0.22372640	     -0.58906925	      3.55335111	      1.63385269	     -4.36830195	      0.00000000	      0.00000000	     28.20515894	     -1.14550279	      8.04652536	     22.51333514	     -5.25057313	     87.72959520	     38.55833876	     51.71256659	      2.20877001	     -0.39362222	     20.05636434	     -3.28598891	     88.49350285	     27.77624801	     27.08535214	     13.66765601	    -12.50663762
      3.97916667	     -1.33150720	      1.24189287	     96.38055192	      0.20094128	      0.86053926	      0.53960517	     -8.97504433	      0.10592917	     -7.09900035	      6.07533526	      0.10603460	     21.38407312	      0.32707122	      0.00000000	     -8.47742369	      0.08734335	     19.27305733	      2.10524499	      0.03674346	     17.12458711	    -15.37224697	      0.00000000	      0.45734118	      0.14154148	     -0.81677705	      0.84932830	      0.18825016	     -0.86782562	      0.75136582	      0.34414394	     -0.86782562	      0.52269523	      0.34414394	     -0.71467992	      0.42468702	      0.28863138	     -0.66363135	      0.26132475	      0.21924775	     -0.61258279	      3.26674230	      1.60114548	     -4.54266892	      0.00000000	      0.00000000	     28.17680792	     -0.81782262	      7.99197117	     22.51543497	     -5.20767149	     87.59985733	     38.66897828	     51.67455115	      2.13647298	     -0.45011899	     20.17118463	     -3.25484133	     88.43638180	     27.65322382	     26.93429539	     13.73978127	    -12.60478072
      4.00000000	     -1.31026165	      1.34353477	     96.73912404	      0.20070888	      0.86071781	      0.53956474	     -8.91823489	      0.20018095	     -7.25515166	      6.40633589	      0.11181165	     21.90150707	      0.16074511	      0.00000000	     -8.43130846	      0.00015518	     19.60019375	      2.34161891	      0.04086896	     17.53663951	    -15.18070968	      0.00000000	      0.40943876	      0.13609641	     -0.86469005	      0.76036872	      0.18100822	     -0.91873318	      0.67266694	      0.33090481	     -0.91873318	      0.46794756	      0.33090481	     -0.75660379	      0.38020483	      0.27752779	     -0.70256066	      0.23395331	      0.21081334	     -0.64851754	      2.92458011	      1.53954978	     -4.80914664	      0.00000000	      0.00000000	     28.13814157	     -0.20303428	      7.99068518	     22.58087358	     -5.22120750	     87.45771945	     38.75725202	     51.83102491	      1.90417310	     -0.51270890	     20.30279532	     -3.18055916	     87.84956511	     27.50152743	     26.44556542	     13.81164613	    -12.76794124
      4.02083333	     -1.22584090	      1.42126005	     97.06316991	      0.20054728	      0.86082974	      0.53936947	     -8.83885828	      0.35384793	     -7.36125058	      6.71489660	      0.11719705	     22.41188316	      0.08795872	      0.00000000	     -8.39177996	     -0.15695675	     19.87318837	      2.49649327	      0.04357203	     17.97662708	    -14.98542477	      0.00000000	      0.38014060	      0.14031084	     -0.90812978	      0.70595912	      0.18661341	     -0.96488789	      0.62453300	      0.34115177	     -0.96488789	      0.43446270	      0.34115177	     -0.79461356	      0.35299857	      0.28612186	     -0.73785545	      0.21721234	      0.21734148	     -0.68109733	      2.71530632	      1.58722424	     -5.05074539	      0.00000000	      0.00000000	     28.09014645	      0.30628315	      8.03210832	     22.57371064	     -5.26615044	     87.42043956	     38.78346095	     52.00231185	      1.74253648	     -0.36295655	     20.32596354	     -3.14889190	     87.19003430	     27.52378831	     26.09579324	     13.87223702	    -12.61096274
      4.04166667	     -1.17661815	      1.42153189	     97.33492957	      0.20022378	      0.86085763	      0.53912271	     -8.67263371	      0.40002579	     -8.16360261	      7.04943849	      0.12303591	     22.89849876	      0.84992524	      0.00000000	     -8.19272956	     -0.24333508	     18.61131617	      2.82881719	      0.04937217	     19.09137408	    -12.63422942	      0.00000000	      0.37420015	      0.15023971	     -0.99448026	      0.69492710	      0.19981881	     -1.05663528	      0.61477343	      0.36529283	     -1.05663528	      0.42767335	      0.36529283	     -0.87017023	      0.34748226	      0.30636881	     -0.80801521	      0.21381797	      0.23272131	     -0.74586020	      2.67287425	      1.69954163	     -5.53100087	      0.00000000	      0.00000000	     28.05113849	      0.95159364	      8.88194745	     22.51881709	     -5.26779731	     87.52514145	     38.80554118	     51.46910441	      2.21387396	      0.53385048	     19.46310764	     -3.40414860	     82.76677335	     28.13819004	     28.52620923	     14.17365467	    -10.07906380
